# File produced by Open Asset Import Library (http://www.assimp.sf.net)
# (assimp v3.1.187496374)

mtllib coin.obj.mtl

# 64 vertex positions
v  0.382683 0.15 -0.92388
v  0.19509 0.15 -0.980785
v  0 0.15 -1
v  -0.195089 0.15 -0.980786
v  -0.382682 0.15 -0.92388
v  -0.555569 0.15 -0.83147
v  -0.707106 0.15 -0.707108
v  -0.831469 0.15 -0.555571
v  -0.923879 0.15 -0.382684
v  -0.980785 0.15 -0.195091
v  -1 0.15 -1e-06
v  -0.980785 0.15 0.195089
v  -0.92388 0.15 0.382683
v  -0.83147 0.15 0.55557
v  -0.707107 0.15 0.707106
v  -0.555571 0.15 0.831469
v  -0.382684 0.15 0.923879
v  -0.195091 0.15 0.980785
v  0 0.15 1
v  0.19509 0.15 0.980785
v  0.382683 0.15 0.92388
v  0.55557 0.15 0.83147
v  0.707107 0.15 0.707107
v  0.83147 0.15 0.55557
v  0.92388 0.15 0.382683
v  0.980785 0.15 0.19509
v  1 0.15 0
v  0.980785 0.15 -0.19509
v  0.92388 0.15 -0.382683
v  0.83147 0.15 -0.55557
v  0.707107 0.15 -0.707107
v  0.55557 0.15 -0.83147
v  -0.195089 -0.15 -0.980786
v  0 -0.15 -1
v  0.19509 -0.15 -0.980785
v  0.382683 -0.15 -0.92388
v  0.55557 -0.15 -0.83147
v  0.707107 -0.15 -0.707107
v  0.83147 -0.15 -0.55557
v  0.92388 -0.15 -0.382683
v  0.980785 -0.15 -0.19509
v  1 -0.15 0
v  0.980785 -0.15 0.19509
v  0.92388 -0.15 0.382683
v  0.83147 -0.15 0.55557
v  0.707107 -0.15 0.707107
v  0.55557 -0.15 0.83147
v  0.382683 -0.15 0.92388
v  0.19509 -0.15 0.980785
v  0 -0.15 1
v  -0.195091 -0.15 0.980785
v  -0.382684 -0.15 0.923879
v  -0.555571 -0.15 0.831469
v  -0.707107 -0.15 0.707106
v  -0.83147 -0.15 0.55557
v  -0.92388 -0.15 0.382683
v  -0.980785 -0.15 0.195089
v  -1 -0.15 -1e-06
v  -0.980785 -0.15 -0.195091
v  -0.923879 -0.15 -0.382684
v  -0.831469 -0.15 -0.555571
v  -0.707106 -0.15 -0.707108
v  -0.555569 -0.15 -0.83147
v  -0.382682 -0.15 -0.92388

# 132 UV coordinates
vt 0.338148 0.952629 0
vt 0.293322 0.980439 0
vt 0.246704 0.989829 0
vt 0.200087 0.980439 0
vt 0.15526 0.952629 0
vt 0.113948 0.907467 0
vt 0.077738 0.84669 0
vt 0.04802 0.772633 0
vt 0.025939 0.688141 0
vt 0.012341 0.596463 0
vt 0.007749 0.50112 0
vt 0.012341 0.405778 0
vt 0.025938 0.314099 0
vt 0.04802 0.229608 0
vt 0.077737 0.15555 0
vt 0.113948 0.094773 0
vt 0.15526 0.049611 0
vt 0.200086 0.021801 0
vt 0.246704 0.01241 0
vt 0.293322 0.021801 0
vt 0.338148 0.049611 0
vt 0.379461 0.094773 0
vt 0.415671 0.15555 0
vt 0.445388 0.229607 0
vt 0.46747 0.314099 0
vt 0.481068 0.405777 0
vt 0.485659 0.50112 0
vt 0.481068 0.596463 0
vt 0.46747 0.688141 0
vt 0.445388 0.772632 0
vt 0.415671 0.84669 0
vt 0.379461 0.907467 0
vt 0.800629 0.983792 0
vt 0.754791 0.99316 0
vt 0.708953 0.983792 0
vt 0.664877 0.956048 0
vt 0.624255 0.910995 0
vt 0.58865 0.850363 0
vt 0.55943 0.776482 0
vt 0.537717 0.692193 0
vt 0.524347 0.600733 0
vt 0.519832 0.505618 0
vt 0.524347 0.410503 0
vt 0.537717 0.319043 0
vt 0.55943 0.234754 0
vt 0.58865 0.160873 0
vt 0.624255 0.100241 0
vt 0.664876 0.055187 0
vt 0.708953 0.027443 0
vt 0.754791 0.018075 0
vt 0.800629 0.027442 0
vt 0.844706 0.055187 0
vt 0.885327 0.10024 0
vt 0.920932 0.160872 0
vt 0.950153 0.234753 0
vt 0.971865 0.319043 0
vt 0.985236 0.410502 0
vt 0.98975 0.505617 0
vt 0.985236 0.600732 0
vt 0.971865 0.692192 0
vt 0.950153 0.776482 0
vt 0.920932 0.850362 0
vt 0.885327 0.910994 0
vt 0.844706 0.956048 0
vt 0.460948 -0.870217 0
vt 0.518503 -0.870217 0
vt 0.518503 -0.801697 0
vt 0.460948 -0.801698 0
vt 0.460948 -0.938736 0
vt 0.518503 -0.938735 0
vt 0.460948 -1.00725 0
vt 0.518503 -1.00725 0
vt 0.460948 -1.07577 0
vt 0.518503 -1.07577 0
vt 0.460948 -1.14429 0
vt 0.518503 -1.14429 0
vt 0.460948 -1.21281 0
vt 0.518503 -1.21281 0
vt 0.460948 -1.28133 0
vt 0.518503 -1.28133 0
vt 0.460948 -1.34985 0
vt 0.518503 -1.34985 0
vt 0.460948 -1.41837 0
vt 0.518503 -1.41837 0
vt 0.460948 -1.48689 0
vt 0.518502 -1.48689 0
vt 0.518503 -0.733178 0
vt 0.460948 -0.733179 0
vt 0.518503 -0.664659 0
vt 0.460948 -0.66466 0
vt 0.518503 -0.59614 0
vt 0.460948 -0.596141 0
vt 0.518503 -0.527621 0
vt 0.460948 -0.527621 0
vt 0.518503 -0.459102 0
vt 0.460948 -0.459102 0
vt 0.518503 -0.390583 0
vt 0.460948 -0.390583 0
vt 0.518503 -0.322064 0
vt 0.460948 -0.322064 0
vt 0.518504 -0.253545 0
vt 0.460948 -0.253545 0
vt 0.518504 -0.185026 0
vt 0.460948 -0.185026 0
vt 0.518504 -0.116507 0
vt 0.460948 -0.116507 0
vt 0.460948 -0.136656 0
vt 0.518504 -0.136656 0
vt 0.518504 -0.024296 0
vt 0.460948 -0.024296 0
vt 0.518504 0.088063 0
vt 0.460948 0.088063 0
vt 0.518504 0.216253 0
vt 0.460948 0.216253 0
vt 0.518504 0.355347 0
vt 0.460948 0.355347 0
vt 0.518504 0.5 0
vt 0.460948 0.5 0
vt 0.518504 0.644653 0
vt 0.460948 0.644653 0
vt 0.518504 0.783747 0
vt 0.460948 0.783747 0
vt 0.518504 0.911937 0
vt 0.460949 0.911937 0
vt 0.518504 1.0243 0
vt 0.460949 1.0243 0
vt 0.518504 1.11651 0
vt 0.460949 1.11651 0
vt 0.518504 1.18503 0
vt 0.460949 1.18503 0
vt 0.518504 1.22722 0
vt 0.460949 1.22722 0

# 34 vertex normals
vn 0 1 0
vn 0 -1 0
vn 2.59775e-06 0 -1
vn 0.195089 0 -0.980785
vn -0.19509 0 -0.980785
vn -0.382684 0 -0.923879
vn -0.555568 0 -0.831471
vn -0.707106 0 -0.707108
vn -0.83147 0 -0.55557
vn -0.923879 0 -0.382684
vn -0.980785 0 -0.195092
vn -1 0 0
vn -0.980786 0 0.195089
vn 0.382682 0 -0.92388
vn 0.55557 0 -0.83147
vn 0.707107 0 -0.707107
vn 0.83147 0 -0.55557
vn 0.92388 0 -0.382682
vn 0.980785 0 -0.195089
vn 1 0 0
vn 0.980785 0 0.195089
vn 0.92388 0 0.382682
vn 0.83147 0 0.55557
vn 0.707107 0 0.707107
vn 0.55557 0 0.83147
vn 0.382682 0 0.92388
vn 0.195089 0 0.980785
vn 0 0 1
vn -0.195091 0 0.980785
vn -0.382684 0 0.923879
vn -0.555571 0 0.831469
vn -0.707107 0 0.707107
vn -0.831469 0 0.555571
vn -0.923881 0 0.382681

# Mesh 'Cylinder' with 60 faces
g Cylinder
usemtl DefaultMaterial
f  1/1/1 2/2/1 3/3/1
f  1/1/1 3/3/1 4/4/1
f  1/1/1 4/4/1 5/5/1
f  1/1/1 5/5/1 6/6/1
f  1/1/1 6/6/1 7/7/1
f  1/1/1 7/7/1 8/8/1
f  1/1/1 8/8/1 9/9/1
f  1/1/1 9/9/1 10/10/1
f  1/1/1 10/10/1 11/11/1
f  1/1/1 11/11/1 12/12/1
f  1/1/1 12/12/1 13/13/1
f  1/1/1 13/13/1 14/14/1
f  1/1/1 14/14/1 15/15/1
f  1/1/1 15/15/1 16/16/1
f  1/1/1 16/16/1 17/17/1
f  1/1/1 17/17/1 18/18/1
f  1/1/1 18/18/1 19/19/1
f  1/1/1 19/19/1 20/20/1
f  1/1/1 20/20/1 21/21/1
f  1/1/1 21/21/1 22/22/1
f  1/1/1 22/22/1 23/23/1
f  1/1/1 23/23/1 24/24/1
f  1/1/1 24/24/1 25/25/1
f  1/1/1 25/25/1 26/26/1
f  1/1/1 26/26/1 27/27/1
f  1/1/1 27/27/1 28/28/1
f  1/1/1 28/28/1 29/29/1
f  1/1/1 29/29/1 30/30/1
f  1/1/1 30/30/1 31/31/1
f  31/31/1 32/32/1 1/1/1
f  33/33/2 34/34/2 35/35/2
f  33/33/2 35/35/2 36/36/2
f  33/33/2 36/36/2 37/37/2
f  33/33/2 37/37/2 38/38/2
f  33/33/2 38/38/2 39/39/2
f  33/33/2 39/39/2 40/40/2
f  33/33/2 40/40/2 41/41/2
f  33/33/2 41/41/2 42/42/2
f  33/33/2 42/42/2 43/43/2
f  33/33/2 43/43/2 44/44/2
f  33/33/2 44/44/2 45/45/2
f  33/33/2 45/45/2 46/46/2
f  33/33/2 46/46/2 47/47/2
f  33/33/2 47/47/2 48/48/2
f  33/33/2 48/48/2 49/49/2
f  33/33/2 49/49/2 50/50/2
f  33/33/2 50/50/2 51/51/2
f  33/33/2 51/51/2 52/52/2
f  33/33/2 52/52/2 53/53/2
f  33/33/2 53/53/2 54/54/2
f  33/33/2 54/54/2 55/55/2
f  33/33/2 55/55/2 56/56/2
f  33/33/2 56/56/2 57/57/2
f  33/33/2 57/57/2 58/58/2
f  33/33/2 58/58/2 59/59/2
f  33/33/2 59/59/2 60/60/2
f  33/33/2 60/60/2 61/61/2
f  33/33/2 61/61/2 62/62/2
f  33/33/2 62/62/2 63/63/2
f  63/63/2 64/64/2 33/33/2

# Mesh 'defaultobject' with 64 faces
g defaultobject
usemtl DefaultMaterial
f  34/65/3 3/66/3 2/67/4
f  34/65/3 2/67/4 35/68/4
f  33/69/5 3/66/3 34/65/3
f  33/69/5 4/70/5 3/66/3
f  64/71/6 4/70/5 33/69/5
f  64/71/6 5/72/6 4/70/5
f  63/73/7 5/72/6 64/71/6
f  63/73/7 6/74/7 5/72/6
f  62/75/8 6/74/7 63/73/7
f  62/75/8 7/76/8 6/74/7
f  61/77/9 7/76/8 62/75/8
f  61/77/9 8/78/9 7/76/8
f  60/79/10 8/78/9 61/77/9
f  60/79/10 9/80/10 8/78/9
f  59/81/11 9/80/10 60/79/10
f  59/81/11 10/82/11 9/80/10
f  58/83/12 10/82/11 59/81/11
f  58/83/12 11/84/12 10/82/11
f  57/85/13 11/84/12 58/83/12
f  57/85/13 12/86/13 11/84/12
f  35/68/4 2/67/4 1/87/14
f  35/68/4 1/87/14 36/88/14
f  36/88/14 1/87/14 32/89/15
f  36/88/14 32/89/15 37/90/15
f  37/90/15 32/89/15 31/91/16
f  37/90/15 31/91/16 38/92/16
f  38/92/16 31/91/16 30/93/17
f  38/92/16 30/93/17 39/94/17
f  39/94/17 30/93/17 29/95/18
f  39/94/17 29/95/18 40/96/18
f  40/96/18 29/95/18 28/97/19
f  40/96/18 28/97/19 41/98/19
f  41/98/19 28/97/19 27/99/20
f  41/98/19 27/99/20 42/100/20
f  42/100/20 27/99/20 26/101/21
f  42/100/20 26/101/21 43/102/21
f  43/102/21 26/101/21 25/103/22
f  43/102/21 25/103/22 44/104/22
f  44/104/22 25/103/22 24/105/23
f  44/104/22 24/105/23 45/106/23
f  45/107/23 24/108/23 23/109/24
f  45/107/23 23/109/24 46/110/24
f  46/110/24 23/109/24 22/111/25
f  46/110/24 22/111/25 47/112/25
f  47/112/25 22/111/25 21/113/26
f  47/112/25 21/113/26 48/114/26
f  48/114/26 21/113/26 20/115/27
f  48/114/26 20/115/27 49/116/27
f  49/116/27 20/115/27 19/117/28
f  49/116/27 19/117/28 50/118/28
f  50/118/28 19/117/28 18/119/29
f  50/118/28 18/119/29 51/120/29
f  51/120/29 18/119/29 17/121/30
f  51/120/29 17/121/30 52/122/30
f  52/122/30 17/121/30 16/123/31
f  52/122/30 16/123/31 53/124/31
f  53/124/31 16/123/31 15/125/32
f  53/124/31 15/125/32 54/126/32
f  54/126/32 15/125/32 14/127/33
f  54/126/32 14/127/33 55/128/33
f  55/128/33 14/127/33 13/129/34
f  55/128/33 13/129/34 56/130/34
f  56/130/34 13/129/34 12/131/13
f  56/130/34 12/131/13 57/132/13

