# File produced by Open Asset Import Library (http://www.assimp.sf.net)
# (assimp v3.1.187496374)

mtllib coin.obj.mtl

# 98 vertex positions
v  -0.118223 0.0362221 -0.118223
v  -0.0639816 0.0362221 -0.154466
v  -0.094427 0.036222 -0.227967
v  -0.174479 0.036222 -0.174479
v  -0.154465 0.0362221 -0.0639817
v  9.37774e-09 0.0362221 -0.167192
v  1.82016e-09 0.036222 -0.24675
v  0.0639817 0.0362221 -0.154466
v  0.0944271 0.036222 -0.227967
v  0.118223 0.0362221 -0.118223
v  0.174479 0.036222 -0.174479
v  0.154466 0.0362221 -0.0639817
v  0.227967 0.0362221 -0.0944271
v  0.167192 0.0362221 2.92444e-09
v  0.24675 0.0362221 6.10565e-09
v  0.154466 0.0362221 0.0639817
v  0.227967 0.0362221 0.0944272
v  0.118223 0.0362221 0.118223
v  0.174479 0.0362221 0.174479
v  0.0639817 0.0362221 0.154466
v  0.0944272 0.0362221 0.227967
v  3.46231e-08 0.0362221 0.167192
v  3.90784e-08 0.0362221 0.24675
v  -0.0639817 0.0362221 0.154466
v  -0.0944271 0.0362221 0.227967
v  -0.118223 0.0362221 0.118223
v  -0.174479 0.0362221 0.174479
v  -0.154465 0.0362221 0.0639817
v  -0.227967 0.0362221 0.0944272
v  -0.167192 0.0362221 -6.37751e-09
v  -0.24675 0.0362221 -7.6226e-09
v  -0.227967 0.0362221 -0.0944272
v  -0.118223 0.017991 0.118223
v  -0.154465 0.017991 0.0639817
v  0.118223 0.017991 -0.118223
v  0.0639817 0.017991 -0.154466
v  2.74158e-08 0.017991 -6.19073e-09
v  0.154466 0.017991 -0.0639817
v  9.37774e-09 0.017991 -0.167192
v  -0.0639816 0.017991 -0.154466
v  -0.118223 0.017991 -0.118223
v  -0.154465 0.017991 -0.0639817
v  -0.167192 0.017991 -3.40729e-09
v  -0.0639817 0.017991 0.154466
v  3.46231e-08 0.017991 0.167192
v  0.0639817 0.017991 0.154466
v  0.118223 0.017991 0.118223
v  0.154466 0.017991 0.0639817
v  0.167192 0.017991 5.89467e-09
v  0.174479 -0.0362221 -0.174479
v  0.0944271 -0.0362221 -0.227967
v  0.227967 -0.0362221 -0.0944271
v  0.24675 -0.0362221 1.79083e-08
v  0.227967 -0.0362221 0.0944272
v  0.174479 -0.036222 0.174479
v  0.0944272 -0.036222 0.227967
v  3.90784e-08 -0.036222 0.24675
v  -0.0944271 -0.036222 0.227967
v  -0.174479 -0.036222 0.174479
v  -0.227967 -0.0362221 0.0944272
v  -0.24675 -0.0362221 4.18005e-09
v  -0.227967 -0.0362221 -0.0944272
v  -0.174479 -0.0362221 -0.174479
v  -0.094427 -0.0362221 -0.227967
v  1.82016e-09 -0.0362221 -0.24675
v  -0.118223 -0.0362221 -0.118223
v  -0.0639816 -0.0362221 -0.154466
v  -0.154465 -0.0362221 -0.0639817
v  -0.167192 -0.0362221 5.42514e-09
v  -0.154465 -0.0362221 0.0639817
v  -0.118223 -0.0362221 0.118223
v  -0.0639817 -0.0362221 0.154466
v  3.46231e-08 -0.0362221 0.167192
v  0.0639817 -0.0362221 0.154466
v  0.118223 -0.0362221 0.118223
v  0.154466 -0.0362221 0.0639817
v  0.167192 -0.0362221 1.47271e-08
v  0.154466 -0.0362221 -0.0639817
v  0.118223 -0.0362221 -0.118223
v  0.0639817 -0.0362221 -0.154466
v  9.37774e-09 -0.0362221 -0.167192
v  -0.154465 -0.017991 0.0639817
v  -0.118223 -0.017991 0.118223
v  0.118223 -0.017991 -0.118223
v  2.74158e-08 -0.017991 -3.28527e-10
v  0.0639817 -0.017991 -0.154466
v  0.154466 -0.017991 -0.0639817
v  9.37774e-09 -0.017991 -0.167192
v  -0.0639816 -0.017991 -0.154466
v  -0.118223 -0.017991 -0.118223
v  -0.154465 -0.017991 -0.0639817
v  -0.167192 -0.017991 2.45492e-09
v  -0.0639817 -0.017991 0.154466
v  3.46231e-08 -0.017991 0.167192
v  0.0639817 -0.017991 0.154466
v  0.118223 -0.017991 0.118223
v  0.167192 -0.017991 1.17569e-08
v  0.154466 -0.017991 0.0639817

# 98 UV coordinates
vt  1.0 1.0
vt  0.0 1.0
vt  0.0 0.0
vt  1.0 0.0
vt  1.0 1.0
vt  0.0 1.0
vt  0.0 0.0
vt  1.0 0.0
vt  1.0 1.0
vt  0.0 1.0
vt  0.0 0.0
vt  1.0 0.0
vt  1.0 1.0
vt  0.0 1.0
vt  0.0 0.0
vt  1.0 0.0
vt  1.0 1.0
vt  0.0 1.0
vt  0.0 0.0
vt  1.0 0.0
vt  1.0 1.0
vt  0.0 1.0
vt  0.0 0.0
vt  1.0 0.0
vt  1.0 1.0
vt  0.0 1.0
vt  0.0 0.0
vt  1.0 0.0
vt  1.0 1.0
vt  0.0 1.0
vt  0.0 0.0
vt  1.0 0.0
vt  1.0 1.0
vt  0.0 1.0
vt  0.0 0.0
vt  1.0 0.0
vt  1.0 1.0
vt  0.0 1.0
vt  0.0 0.0
vt  1.0 0.0
vt  1.0 1.0
vt  0.0 1.0
vt  0.0 0.0
vt  1.0 0.0
vt  1.0 1.0
vt  0.0 1.0
vt  0.0 0.0
vt  1.0 0.0
vt  1.0 1.0
vt  0.0 1.0
vt  0.0 0.0
vt  1.0 0.0
vt  1.0 1.0
vt  0.0 1.0
vt  0.0 0.0
vt  1.0 0.0
vt  1.0 1.0
vt  0.0 1.0
vt  0.0 0.0
vt  1.0 0.0
vt  1.0 1.0
vt  0.0 1.0
vt  0.0 0.0
vt  1.0 0.0
vt  1.0 1.0
vt  0.0 1.0
vt  0.0 0.0
vt  1.0 0.0
vt  1.0 1.0
vt  0.0 1.0
vt  0.0 0.0
vt  1.0 0.0
vt  1.0 1.0
vt  0.0 1.0
vt  0.0 0.0
vt  1.0 0.0
vt  1.0 1.0
vt  0.0 1.0
vt  1.0 1.0
vt  0.0 1.0
vt  0.0 0.0
vt  1.0 0.0
vt  1.0 1.0
vt  0.0 1.0
vt  0.0 0.0
vt  1.0 0.0
vt  1.0 1.0
vt  0.0 1.0
vt  1.0 1.0
vt  0.0 1.0
vt  0.0 0.0
vt  1.0 0.0
vt  1.0 1.0
vt  0.0 1.0
vt  0.0 0.0
vt  1.0 0.0
vt  1.0 1.0
vt  0.0 1.0

# 68 vertex normals
vn 0 1 -1.62921e-07
vn -7.38989e-08 1 -1.62921e-07
vn 1.84748e-08 1 -1.62921e-07
vn -5.54242e-08 1 -1.62921e-07
vn -3.69495e-08 1 -1.62921e-07
vn -3.69495e-08 1 -1.62921e-07
vn -1.84747e-08 1 -1.62921e-07
vn -9.23737e-09 1 -1.62921e-07
vn 3.69495e-08 1 -1.62921e-07
vn 0.83147 -9.05139e-08 -0.55557
vn 0 1 -1.34587e-07
vn -2.17655e-08 1 -1.56273e-07
vn 0 1 -1.29498e-07
vn 4.35309e-08 1 -1.34587e-07
vn 4.35309e-08 1 -1.43989e-07
vn 4.35309e-08 1 -1.69569e-07
vn 4.35309e-08 1 -1.91255e-07
vn 0 1 -1.96343e-07
vn -4.3531e-08 1 -1.81853e-07
vn 0.55557 -1.35464e-07 -0.83147
vn 0.83147 -9.05139e-08 -0.55557
vn 0.980785 -3.17843e-08 -0.19509
vn 0.980785 3.17843e-08 0.19509
vn 0.831469 9.05139e-08 0.55557
vn 0.55557 1.35464e-07 0.83147
vn 0.19509 1.5979e-07 0.980785
vn -0.19509 1.5979e-07 0.980785
vn -0.55557 1.35464e-07 0.83147
vn -0.831469 9.05139e-08 0.555571
vn -0.980785 3.17842e-08 0.19509
vn -0.980785 -3.17842e-08 -0.19509
vn -0.831469 -9.05139e-08 -0.55557
vn -0.55557 -1.35464e-07 -0.83147
vn -0.19509 -1.5979e-07 -0.980785
vn -0.83147 9.05139e-08 0.55557
vn 0.83147 9.05139e-08 0.55557
vn -0.83147 -9.05139e-08 -0.55557
vn 0.19509 -1.5979e-07 -0.980785
vn 0.980785 -3.17843e-08 -0.195091
vn -0.980785 3.17843e-08 0.195091
vn 0.55557 1.35464e-07 0.83147
vn -0.55557 -1.35464e-07 -0.83147
vn 0.55557 -1.35464e-07 -0.83147
vn -0.55557 1.35464e-07 0.83147
vn 0.980785 3.17843e-08 0.19509
vn -0.980785 -3.17843e-08 -0.195091
vn 0.19509 1.5979e-07 0.980785
vn -0.195091 1.5979e-07 0.980785
vn -0.195091 -1.5979e-07 -0.980785
vn 0 -1 1.62921e-07
vn -7.38989e-08 -1 1.62921e-07
vn 2.97923e-08 -1 1.62921e-07
vn -1.84747e-08 -1 1.62921e-07
vn 0 -1 1.62921e-07
vn -3.69495e-08 -1 1.62921e-07
vn -1.86629e-08 -1 1.62921e-07
vn -3.69495e-08 -1 1.62921e-07
vn -7.3899e-08 -1 1.62921e-07
vn 0 -1 1.91255e-07
vn -2.17655e-08 -1 1.69569e-07
vn 0 -1 1.96343e-07
vn 4.35309e-08 -1 1.91255e-07
vn 4.35309e-08 -1 1.81853e-07
vn 4.35309e-08 -1 1.56273e-07
vn 4.35309e-08 -1 1.34587e-07
vn 0 -1 1.29498e-07
vn -4.3531e-08 -1 1.43989e-07
vn 0.19509 -1.5979e-07 -0.980785

# Mesh 'bitcoin_coin' with 192 faces
g bitcoin_coin
usemtl Material
f  1/1/1   2/2/1   3/3/1
f  1/1/1   3/3/1   4/4/1
f  5/5/2   1/1/1   4/4/1
f  2/2/1   6/6/3   7/7/3
f  2/2/1   7/7/3   3/3/1
f  6/6/3   8/8/4   9/9/4
f  6/6/3   9/9/4   7/7/3
f  8/8/4   10/10/5  11/11/5
f  8/8/4   11/11/5  9/9/4
f  10/10/5  12/12/5  13/13/5
f  10/10/5  13/13/5  11/11/5
f  12/12/5  14/14/6  15/15/6
f  12/12/5  15/15/6  13/13/5
f  14/14/6  16/16/5  17/17/5
f  14/14/6  17/17/5  15/15/6
f  16/16/5  18/18/5  19/19/5
f  16/16/5  19/19/5  17/17/5
f  18/18/5  20/20/7  21/21/7
f  18/18/5  21/21/7  19/19/5
f  20/20/7  22/22/8  23/23/8
f  20/20/7  23/23/8  21/21/7
f  22/22/8  24/24/8  25/25/8
f  22/22/8  25/25/8  23/23/8
f  24/24/8  26/26/1  27/27/1
f  24/24/8  27/27/1  25/25/8
f  26/26/1  28/28/9  29/29/9
f  26/26/1  29/29/9  27/27/1
f  28/28/9  30/30/9  31/31/9
f  28/28/9  31/31/9  29/29/9
f  30/30/9  5/5/2   32/32/2
f  30/30/9  32/32/2  31/31/9
f  5/5/2   4/4/1   32/32/2
f  28/28/10 26/26/10 33/33/10
f  28/28/10 33/33/10 34/34/10
f  35/35/11 36/36/11 37/37/11
f  38/38/12 35/35/11 37/37/11
f  36/36/11 39/39/13 37/37/11
f  39/39/13 40/40/14 37/37/11
f  40/40/14 41/41/14 37/37/11
f  41/41/14 42/42/15 37/37/11
f  42/42/15 43/43/16 37/37/11
f  43/43/16 34/34/16 37/37/11
f  34/34/16 33/33/17 37/37/11
f  33/33/17 44/44/17 37/37/11
f  44/44/17 45/45/18 37/37/11
f  45/45/18 46/46/18 37/37/11
f  46/46/18 47/47/19 37/37/11
f  47/47/19 48/48/19 37/37/11
f  49/49/12 38/38/12 37/37/11
f  48/48/19 49/49/12 37/37/11
f  11/11/20 50/50/20 51/51/20
f  11/11/20 51/51/20 9/9/20
f  13/13/21 52/52/21 50/50/21
f  13/13/21 50/50/21 11/11/21
f  15/15/22 53/53/22 52/52/22
f  15/15/22 52/52/22 13/13/22
f  17/17/23 54/54/23 53/53/23
f  17/17/23 53/53/23 15/15/23
f  19/19/24 55/55/24 54/54/24
f  19/19/24 54/54/24 17/17/24
f  21/21/25 56/56/25 55/55/25
f  21/21/25 55/55/25 19/19/25
f  23/23/26 57/57/26 56/56/26
f  23/23/26 56/56/26 21/21/26
f  25/25/27 58/58/27 57/57/27
f  25/25/27 57/57/27 23/23/27
f  27/27/28 59/59/28 58/58/28
f  27/27/28 58/58/28 25/25/28
f  29/29/29 60/60/29 59/59/29
f  29/29/29 59/59/29 27/27/29
f  31/31/30 61/61/30 60/60/30
f  31/31/30 60/60/30 29/29/30
f  32/32/31 62/62/31 61/61/31
f  32/32/31 61/61/31 31/31/31
f  4/4/32  63/63/32 62/62/32
f  4/4/32  62/62/32 32/32/32
f  3/3/33  64/64/33 63/63/33
f  3/3/33  63/63/33 4/4/33
f  7/7/34  65/65/34 64/64/34
f  7/7/34  64/64/34 3/3/34
f  12/12/35 10/10/35 35/35/35
f  12/12/35 35/35/35 38/38/35
f  1/1/36  5/5/36  42/42/36
f  1/1/36  42/42/36 41/41/36
f  18/18/37 16/16/37 48/48/37
f  18/18/37 48/48/37 47/47/37
f  24/24/38 22/22/38 45/45/38
f  24/24/38 45/45/38 44/44/38
f  30/30/39 28/28/39 34/34/39
f  30/30/39 34/34/39 43/43/39
f  14/14/40 12/12/40 38/38/40
f  14/14/40 38/38/40 49/49/40
f  2/2/41  1/1/41  41/41/41
f  2/2/41  41/41/41 40/40/41
f  20/20/42 18/18/42 47/47/42
f  20/20/42 47/47/42 46/46/42
f  26/26/43 24/24/43 44/44/43
f  26/26/43 44/44/43 33/33/43
f  10/10/44 8/8/44  36/36/44
f  10/10/44 36/36/44 35/35/44
f  5/5/45  30/30/45 43/43/45
f  5/5/45  43/43/45 42/42/45
f  16/16/46 14/14/46 49/49/46
f  16/16/46 49/49/46 48/48/46
f  6/6/47  2/2/47  40/40/47
f  6/6/47  40/40/47 39/39/47
f  8/8/48  6/6/48  39/39/48
f  8/8/48  39/39/48 36/36/48
f  22/22/49 20/20/49 46/46/49
f  22/22/49 46/46/49 45/45/49
f  66/66/50 63/63/50 64/64/50
f  66/66/50 64/64/50 67/67/50
f  68/68/51 63/63/50 66/66/50
f  68/68/51 62/62/51 63/63/50
f  69/69/52 62/62/51 68/68/51
f  69/69/52 61/61/52 62/62/51
f  70/70/52 61/61/52 69/69/52
f  70/70/52 60/60/52 61/61/52
f  71/71/53 60/60/52 70/70/52
f  71/71/53 59/59/53 60/60/52
f  72/72/54 59/59/53 71/71/53
f  72/72/54 58/58/54 59/59/53
f  73/73/54 58/58/54 72/72/54
f  73/73/54 57/57/54 58/58/54
f  74/74/55 57/57/54 73/73/54
f  74/74/55 56/56/55 57/57/54
f  75/75/50 56/56/55 74/74/55
f  75/75/50 55/55/50 56/56/55
f  76/76/50 55/55/50 75/75/50
f  76/76/50 54/54/50 55/55/50
f  77/77/56 54/54/50 76/76/50
f  77/77/56 53/53/56 54/54/50
f  78/78/57 53/53/56 77/77/56
f  78/78/57 52/52/57 53/53/56
f  79/79/57 52/52/57 78/78/57
f  79/79/57 50/50/57 52/52/57
f  80/80/58 50/50/57 79/79/57
f  80/80/58 51/51/58 50/50/57
f  81/81/50 51/51/58 80/80/58
f  81/81/50 65/65/50 51/51/58
f  67/67/50 65/65/50 81/81/50
f  67/67/50 64/64/50 65/65/50
f  70/70/10 82/82/10 83/83/10
f  70/70/10 83/83/10 71/71/10
f  84/84/59 85/85/59 86/86/59
f  87/87/60 85/85/59 84/84/59
f  86/86/59 85/85/59 88/88/61
f  88/88/61 85/85/59 89/89/62
f  89/89/62 85/85/59 90/90/62
f  90/90/62 85/85/59 91/91/63
f  91/91/63 85/85/59 92/92/64
f  92/92/64 85/85/59 82/82/64
f  82/82/64 85/85/59 83/83/65
f  83/83/65 85/85/59 93/93/65
f  93/93/65 85/85/59 94/94/66
f  94/94/66 85/85/59 95/95/66
f  95/95/66 85/85/59 96/96/67
f  97/97/60 85/85/59 87/87/60
f  96/96/67 85/85/59 98/98/67
f  98/98/67 85/85/59 97/97/60
f  78/78/35 87/87/35 84/84/35
f  78/78/35 84/84/35 79/79/35
f  66/66/36 90/90/36 91/91/36
f  66/66/36 91/91/36 68/68/36
f  75/75/37 96/96/37 98/98/37
f  75/75/37 98/98/37 76/76/37
f  72/72/38 93/93/38 94/94/38
f  72/72/38 94/94/38 73/73/38
f  69/69/39 92/92/39 82/82/39
f  69/69/39 82/82/39 70/70/39
f  77/77/40 97/97/40 87/87/40
f  77/77/40 87/87/40 78/78/40
f  67/67/41 89/89/41 90/90/41
f  67/67/41 90/90/41 66/66/41
f  74/74/42 95/95/42 96/96/42
f  74/74/42 96/96/42 75/75/42
f  71/71/43 83/83/43 93/93/43
f  71/71/43 93/93/43 72/72/43
f  79/79/44 84/84/44 86/86/44
f  79/79/44 86/86/44 80/80/44
f  68/68/45 91/91/45 92/92/45
f  68/68/45 92/92/45 69/69/45
f  76/76/46 98/98/46 97/97/46
f  76/76/46 97/97/46 77/77/46
f  81/81/47 88/88/47 89/89/47
f  81/81/47 89/89/47 67/67/47
f  80/80/48 86/86/48 88/88/48
f  80/80/48 88/88/48 81/81/48
f  73/73/49 94/94/49 95/95/49
f  73/73/49 95/95/49 74/74/49
f  9/9/68  51/51/68 65/65/68
f  9/9/68  65/65/68 7/7/68

